<svg xmlns="http://www.w3.org/2000/svg" xmlns:xlink="http://www.w3.org/1999/xlink" version="1.1" id="Layer_1" x="0px" y="0px" width="310px" height="95px" viewBox="0 0 310 95" enable-background="new 0 0 310 95" xml:space="preserve">
<g>
	<g>
		<linearGradient id="SVGID_1_" gradientUnits="userSpaceOnUse" x1="47.4" y1="-7.4" x2="47.4" y2="106.5">
			<stop offset="0" style="stop-color:#D296C3"/>
			<stop offset="1" style="stop-color:#774C9E"/>
		</linearGradient>
		<circle fill="url(#SVGID_1_)" cx="47.4" cy="47.4" r="47.4"/>
		<linearGradient id="SVGID_2_" gradientUnits="userSpaceOnUse" x1="3.8" y1="47.8" x2="90.5" y2="47.8">
			<stop offset="0" style="stop-color:#D296C3"/>
			<stop offset="1" style="stop-color:#774C9E"/>
		</linearGradient>
		<circle fill="url(#SVGID_2_)" cx="47.2" cy="47.8" r="43.4"/>
		<path fill="#6A447E" d="M63.599 27.16H45.85h-0.36h-2.929L9.837 62.866h9.436l5.127-4.591h21.09v4.591h18.109 c12.291 0 21.676-3.928 21.676-17.854C85.275 31.1 75.9 27.2 63.6 27.16z M31.356 51.644L45.49 36.688v14.956H31.356z M63.599 56.234H53.143V33.791h10.457c8.823 0 14 2.4 14 11.221C77.624 53.8 72.4 56.2 63.6 56.234z"/>
		<path fill="#FFFFFF" d="M63.599 28.117H45.85h-0.36h-2.929L9.837 63.822h9.436L24.4 59.23h21.09v4.592h18.109 c12.291 0 21.676-3.927 21.676-17.854C85.275 32 75.9 28.1 63.6 28.117z M31.356 52.6L45.49 37.643V52.6H31.356z M63.599 57.192H53.143V34.748h10.457c8.823 0 14 2.4 14 11.221C77.624 54.8 72.4 57.2 63.6 57.192z"/>
	</g>
	<g display="none">
		<path display="inline" fill="#FFFFFF" d="M127.489 64.71v-2.698c-1.799 2.474-5.115 3.485-8.095 3.5 c-4.777 0-9.5-3.092-9.5-9.443c0-6.971 5.341-9.894 10.681-9.894c2.191 0 4.9 0.3 6.9 1.012v-1.067 c0-3.372-2.193-5.059-5.734-5.059c-2.642 0-5.677 1.123-7.588 3.035l-2.979-4.946c3.204-2.529 7.588-3.934 11.523-3.934 c7.308 0 12 3.5 12 11.298V64.71H127.489z M127.489 52.12c-1.406-0.563-3.373-0.958-5.003-0.958 c-2.754 0-5.003 1.295-5.003 4.497c0 3 2 4.3 4.3 4.274c2.249 0 4.666-1.182 5.734-3.207V52.12z"/>
		<path display="inline" fill="#FFFFFF" d="M159.251 64.71v-2.25c-1.63 2.025-4.439 3.037-7.364 3 c-6.801 0-12.085-6.239-12.085-15.065c0-8.713 5.172-15.232 12.029-15.232c2.698 0 5.7 1.3 7.4 3.259v-13.21l7.195-1.799 v41.26H159.251z M147.447 50.489c0 5.2 2.3 8.6 6.3 8.599c2.024 0 4.046-1.18 5.508-3.204V44.922 c-1.405-1.912-3.598-3.259-5.621-3.259C149.695 41.7 147.4 45.4 147.4 50.489z"/>
		<path display="inline" fill="#FFFFFF" d="M209.004 64.71V46.44c0-5.958-2.476-7.644-5.849-7.644c-2.529 0-5.958 1.405-8.317 3.8 c0.225 1.2 0.3 2.5 0.3 3.992V64.71h-3.935V46.44c0-5.958-2.528-7.644-5.847-7.644c-2.754 0-5.789 1.405-7.98 3.427V64.71 h-3.935V36.099h3.935v2.417c2.642-2.136 5.79-3.315 8.938-3.315c3.429 0 6.1 1.3 7.5 4.4 c3.092-3.147 7.362-4.44 10.286-4.44c5.285 0 8.8 3 8.8 11.354V64.71H209.004z"/>
		<path display="inline" fill="#FFFFFF" d="M224.466 25.249v3.992h-4.048v-3.992H224.466z M224.411 36.099V64.71h-3.936V36.099 H224.411z"/>
		<path display="inline" fill="#FFFFFF" d="M233.181 39.527h-3.599v-3.428h3.599v-6.017l3.936-1.517v7.533h9.329v3.428h-9.329v15.57 c0 5.4 2 7 5.3 6.971c1.576 0 2.98-0.562 3.88-1.291l1.35 3.54c-1.688 0.676-3.934 1.293-5.96 1.3 c-4.889 0-8.486-2.024-8.486-10.456V39.527z"/>
		<path display="inline" fill="#FFFFFF" d="M267.527 64.71v-2.698c-1.798 2.474-5.115 3.485-8.095 3.5 c-4.778 0-9.5-3.092-9.5-9.443c0-6.971 5.342-9.894 10.682-9.894c2.191 0 4.9 0.3 6.9 1.012v-1.067 c0-3.372-2.191-5.059-5.733-5.059c-2.641 0-5.677 1.123-7.589 3.035l-2.979-4.946c3.205-2.529 7.588-3.934 11.522-3.934 c7.31 0 12 3.5 12 11.298V64.71H267.527z M267.527 52.12c-1.406-0.563-3.372-0.958-5.004-0.958 c-2.755 0-5.002 1.295-5.002 4.497c0 3 2 4.3 4.3 4.274c2.247 0 4.666-1.182 5.733-3.207V52.12z"/>
		<path display="inline" fill="#FFFFFF" d="M299.291 64.71v-2.25c-1.631 2.025-4.441 3.037-7.365 3 c-6.802 0-12.084-6.239-12.084-15.065c0-8.713 5.17-15.232 12.028-15.232c2.698 0 5.7 1.3 7.4 3.259v-13.21l7.193-1.799 v41.26H299.291z M287.485 50.489c0 5.2 2.3 8.6 6.3 8.599c2.022 0 4.048-1.18 5.509-3.204V44.922 c-1.407-1.912-3.598-3.259-5.623-3.259C289.734 41.7 287.5 45.4 287.5 50.489z"/>
		<path display="inline" fill="#FFFFFF" d="M318.35 59.201v5.509h-5.51v-5.509H318.35z"/>
		<path display="inline" fill="#FFFFFF" d="M344.151 42.281c-1.91-2.248-3.823-3.597-6.971-3.597c-5.339 0-9.05 5.059-9.05 11.9 c0 6.6 3.7 11.5 9.2 11.521c3.316 0 5.341-1.573 7.14-4.215l2.472 2.36c-2.472 3.599-5.564 5.341-9.836 5.3 c-7.813 0-13.153-6.69-13.153-15.12c0-8.321 5.509-15.29 13.153-15.29c4.048 0 7.1 1.4 9.6 4.607L344.151 42.281z"/>
		<path display="inline" fill="#FFFFFF" d="M375.913 50.375c0 8.434-5.173 15.234-12.704 15.2 c-7.475 0-12.759-6.801-12.759-15.234c0-8.319 5.284-15.175 12.759-15.175C370.74 35.2 375.9 42.1 375.9 50.375z M354.721 50.489c0 6.6 2.9 11.6 8.5 11.634c5.509 0 8.433-5.002 8.433-11.634c0-6.859-2.866-11.805-8.433-11.805 C357.7 38.7 354.7 43.6 354.7 50.489z"/>
		<path display="inline" fill="#FFFFFF" d="M417.683 64.71V46.44c0-5.958-2.475-7.644-5.849-7.644c-2.528 0-5.959 1.405-8.317 3.8 c0.224 1.2 0.3 2.5 0.3 3.992V64.71h-3.935V46.44c0-5.958-2.529-7.644-5.848-7.644c-2.753 0-5.788 1.405-7.981 3.4 V64.71h-3.934V36.099h3.934v2.417c2.644-2.136 5.79-3.315 8.938-3.315c3.43 0 6.1 1.3 7.5 4.4 c3.092-3.147 7.366-4.44 10.288-4.44c5.281 0 8.8 3 8.8 11.354V64.71H417.683z"/>
	</g>
	<path d="M127.489 64.654v-2.698c-1.799 2.474-5.115 3.484-8.095 3.484c-4.777 0-9.5-3.092-9.5-9.442 c0-6.971 5.341-9.894 10.681-9.894c2.191 0 4.9 0.3 6.9 1.011v-1.067c0-3.372-2.193-5.059-5.734-5.059 c-2.642 0-5.677 1.124-7.588 3.034l-2.979-4.946c3.204-2.529 7.588-3.934 11.523-3.934c7.308 0 12 3.5 12 11.298v18.213 H127.489z M127.489 52.063c-1.406-0.563-3.373-0.958-5.003-0.958c-2.754 0-5.003 1.295-5.003 4.5 c0 3 2 4.3 4.3 4.273c2.249 0 4.666-1.181 5.734-3.206V52.063z"/>
	<path d="M159.251 64.654v-2.25c-1.63 2.025-4.439 3.036-7.364 3.036c-6.801 0-12.085-6.239-12.085-15.065 c0-8.712 5.172-15.232 12.029-15.232c2.698 0 5.7 1.3 7.4 3.26V25.193l7.195-1.799v41.26H159.251z M147.447 50.4 c0 5.2 2.3 8.6 6.3 8.599c2.024 0 4.046-1.18 5.508-3.203V44.866c-1.405-1.911-3.598-3.259-5.621-3.259 C149.695 41.6 147.4 45.3 147.4 50.433z"/>
	<path d="M209.004 64.654V46.385c0-5.958-2.476-7.644-5.849-7.644c-2.529 0-5.958 1.405-8.317 3.8 c0.225 1.2 0.3 2.5 0.3 3.992v18.157h-3.935V46.385c0-5.958-2.528-7.644-5.847-7.644c-2.754 0-5.789 1.405-7.98 3.4 v22.487h-3.935V36.042h3.935v2.417c2.642-2.136 5.79-3.316 8.938-3.316c3.429 0 6.1 1.3 7.5 4.4 c3.092-3.149 7.362-4.441 10.286-4.441c5.285 0 8.8 3 8.8 11.354v18.157H209.004z"/>
	<path d="M224.466 25.193v3.992h-4.048v-3.992H224.466z M224.411 36.042v28.612h-3.936V36.042H224.411z"/>
	<path d="M233.181 39.471h-3.599v-3.429h3.599v-6.017l3.936-1.516v7.533h9.329v3.429h-9.329V55.04c0 5.4 2 7 5.3 7 c1.576 0 2.98-0.561 3.88-1.291l1.35 3.541c-1.688 0.676-3.934 1.292-5.96 1.292c-4.889 0-8.486-2.023-8.486-10.455V39.471z"/>
	<path d="M267.527 64.654v-2.698c-1.798 2.474-5.115 3.484-8.095 3.484c-4.778 0-9.5-3.092-9.5-9.442 c0-6.971 5.342-9.894 10.682-9.894c2.191 0 4.9 0.3 6.9 1.011v-1.067c0-3.372-2.191-5.059-5.733-5.059 c-2.641 0-5.677 1.124-7.589 3.034l-2.979-4.946c3.205-2.529 7.588-3.934 11.522-3.934c7.31 0 12 3.5 12 11.298v18.213 H267.527z M267.527 52.063c-1.406-0.563-3.372-0.958-5.004-0.958c-2.755 0-5.002 1.295-5.002 4.5 c0 3 2 4.3 4.3 4.273c2.247 0 4.666-1.181 5.733-3.206V52.063z"/>
	<path d="M299.291 64.654v-2.25c-1.631 2.025-4.441 3.036-7.365 3.036c-6.802 0-12.084-6.239-12.084-15.065 c0-8.712 5.17-15.232 12.028-15.232c2.698 0 5.7 1.3 7.4 3.26V25.193l7.193-1.799v41.26H299.291z M287.485 50.4 c0 5.2 2.3 8.6 6.3 8.599c2.022 0 4.048-1.18 5.509-3.203V44.866c-1.407-1.911-3.598-3.259-5.623-3.259 C289.734 41.6 287.5 45.3 287.5 50.433z"/>
</g>
</svg>
